<svg width="1238" height="711" class="scatterD3" id="scatterD3-svg-explor_var" xmlns="http://www.w3.org/2000/svg" version="1.1"><style>.scatterD3 {font: 11px Open Sans, Droid Sans, Helvetica, Verdana, sans-serif;}.scatterD3 .axis line, .axis path { stroke: #000; fill: none; shape-rendering: CrispEdges;} .scatterD3 .axis .tick line { stroke: #ddd;} .scatterD3 .axis text { fill: #000; }</style><g class="root" transform="translate(30,5)"><rect class="viewport" width="686" height="686" style="fill: rgb(255, 255, 255);"></rect><g class="x axis" transform="translate(0,686)" fill="none" font-size="10" font-family="sans-serif" text-anchor="middle" style="font-size: 100%;"><path class="domain" stroke="currentColor" d="M0.5,-686V0.5H686.5V-686"></path><g class="tick" opacity="1" transform="translate(56.91550159430952,0)"><line stroke="currentColor" y2="-686"></line><text fill="currentColor" y="3" dy="0.71em">-2</text></g><g class="tick" opacity="1" transform="translate(117.00870738287956,0)"><line stroke="currentColor" y2="-686"></line><text fill="currentColor" y="3" dy="0.71em">-1.5</text></g><g class="tick" opacity="1" transform="translate(177.10191317144958,0)"><line stroke="currentColor" y2="-686"></line><text fill="currentColor" y="3" dy="0.71em">-1</text></g><g class="tick" opacity="1" transform="translate(237.1951189600196,0)"><line stroke="currentColor" y2="-686"></line><text fill="currentColor" y="3" dy="0.71em">-0.5</text></g><g class="tick" opacity="1" transform="translate(297.2883247485896,0)"><line stroke="currentColor" y2="-686"></line><text fill="currentColor" y="3" dy="0.71em">0</text></g><g class="tick" opacity="1" transform="translate(357.3815305371596,0)"><line stroke="currentColor" y2="-686"></line><text fill="currentColor" y="3" dy="0.71em">0.5</text></g><g class="tick" opacity="1" transform="translate(417.4747363257297,0)"><line stroke="currentColor" y2="-686"></line><text fill="currentColor" y="3" dy="0.71em">1</text></g><g class="tick" opacity="1" transform="translate(477.56794211429974,0)"><line stroke="currentColor" y2="-686"></line><text fill="currentColor" y="3" dy="0.71em">1.5</text></g><g class="tick" opacity="1" transform="translate(537.6611479028699,0)"><line stroke="currentColor" y2="-686"></line><text fill="currentColor" y="3" dy="0.71em">2</text></g><g class="tick" opacity="1" transform="translate(597.7543536914399,0)"><line stroke="currentColor" y2="-686"></line><text fill="currentColor" y="3" dy="0.71em">2.5</text></g><g class="tick" opacity="1" transform="translate(657.8475594800099,0)"><line stroke="currentColor" y2="-686"></line><text fill="currentColor" y="3" dy="0.71em">3</text></g></g><g class="y axis" fill="none" font-size="10" font-family="sans-serif" text-anchor="end" style="font-size: 100%;"><path class="domain" stroke="currentColor" d="M686,686.5H0.5V0.5H686"></path><g class="tick" opacity="1" transform="translate(0,651.4776796664214)"><line stroke="currentColor" x2="686"></line><text fill="currentColor" x="-3" dy="0.32em">-1.5</text></g><g class="tick" opacity="1" transform="translate(0,591.3844738778514)"><line stroke="currentColor" x2="686"></line><text fill="currentColor" x="-3" dy="0.32em">-1</text></g><g class="tick" opacity="1" transform="translate(0,531.2912680892814)"><line stroke="currentColor" x2="686"></line><text fill="currentColor" x="-3" dy="0.32em">-0.5</text></g><g class="tick" opacity="1" transform="translate(0,471.1980623007113)"><line stroke="currentColor" x2="686"></line><text fill="currentColor" x="-3" dy="0.32em">0</text></g><g class="tick" opacity="1" transform="translate(0,411.1048565121413)"><line stroke="currentColor" x2="686"></line><text fill="currentColor" x="-3" dy="0.32em">0.5</text></g><g class="tick" opacity="1" transform="translate(0,351.0116507235713)"><line stroke="currentColor" x2="686"></line><text fill="currentColor" x="-3" dy="0.32em">1</text></g><g class="tick" opacity="1" transform="translate(0,290.9184449350012)"><line stroke="currentColor" x2="686"></line><text fill="currentColor" x="-3" dy="0.32em">1.5</text></g><g class="tick" opacity="1" transform="translate(0,230.82523914643116)"><line stroke="currentColor" x2="686"></line><text fill="currentColor" x="-3" dy="0.32em">2</text></g><g class="tick" opacity="1" transform="translate(0,170.73203335786116)"><line stroke="currentColor" x2="686"></line><text fill="currentColor" x="-3" dy="0.32em">2.5</text></g><g class="tick" opacity="1" transform="translate(0,110.63882756929127)"><line stroke="currentColor" x2="686"></line><text fill="currentColor" x="-3" dy="0.32em">3</text></g><g class="tick" opacity="1" transform="translate(0,50.54562178072115)"><line stroke="currentColor" x2="686"></line><text fill="currentColor" x="-3" dy="0.32em">3.5</text></g></g><text class="x-axis-label" transform="translate(681,680)" style="text-anchor: end; font-size: 100%;">Axis 1 (17.39%)</text><text class="y-axis-label" transform="translate(5,6) rotate(-90)" dy=".71em" style="text-anchor: end; font-size: 100%;">Axis 2 (17.04%)</text><svg class="chart-body" width="686" height="686"><path class="line" d="M0,470.6980623007113L686,470.6980623007113" style="stroke-width: 1px; stroke: rgb(0, 0, 0); stroke-dasharray: 5;"></path><path class="line" d="M296.7883247485896,0L296.7883247485896,686" style="stroke-width: 1px; stroke: rgb(0, 0, 0); stroke-dasharray: 5;"></path><path transform="translate(288.49546234976697,486.44248221731664)" d="M4.222008245644752,0A4.222008245644752,4.222008245644752,0,1,1,-4.222008245644752,0A4.222008245644752,4.222008245644752,0,1,1,4.222008245644752,0" class="dot symbol symbol-c color color-cage" style="fill: rgb(31, 119, 180); opacity: 1;"></path><path transform="translate(396.7834191807701,280.80353200882996)" d="M4.222008245644752,0A4.222008245644752,4.222008245644752,0,1,1,-4.222008245644752,0A4.222008245644752,4.222008245644752,0,1,1,4.222008245644752,0" class="dot symbol symbol-c color color-cage" style="fill: rgb(31, 119, 180); opacity: 1;"></path><path transform="translate(214.94137846455726,98)" d="M4.222008245644752,0A4.222008245644752,4.222008245644752,0,1,1,-4.222008245644752,0A4.222008245644752,4.222008245644752,0,1,1,4.222008245644752,0" class="dot symbol symbol-c color color-cdernier_domicile" style="fill: rgb(214, 39, 40); opacity: 1;"></path><path transform="translate(268.66470443953887,427.55114054451803)" d="M4.222008245644752,0A4.222008245644752,4.222008245644752,0,1,1,-4.222008245644752,0A4.222008245644752,4.222008245644752,0,1,1,4.222008245644752,0" class="dot symbol symbol-c color color-cdernier_domicile" style="fill: rgb(214, 39, 40); opacity: 1;"></path><path transform="translate(319.8641157714006,525.9838116261958)" d="M4.222008245644752,0A4.222008245644752,4.222008245644752,0,1,1,-4.222008245644752,0A4.222008245644752,4.222008245644752,0,1,1,4.222008245644752,0" class="dot symbol symbol-c color color-cdernier_domicile" style="fill: rgb(214, 39, 40); opacity: 1;"></path><path transform="translate(287.29359823399557,403.0331125827814)" d="M4.222008245644752,0A4.222008245644752,4.222008245644752,0,1,1,-4.222008245644752,0A4.222008245644752,4.222008245644752,0,1,1,4.222008245644752,0" class="dot symbol symbol-c color color-cdernier_domicile" style="fill: rgb(214, 39, 40); opacity: 1;"></path><path transform="translate(471.0586215354427,438.36791758646063)" d="M4.222008245644752,0A4.222008245644752,4.222008245644752,0,1,1,-4.222008245644752,0A4.222008245644752,4.222008245644752,0,1,1,4.222008245644752,0" class="dot symbol symbol-c color color-cenfants" style="fill: rgb(44, 160, 44); opacity: 1;"></path><path transform="translate(242.82462595045376,480.67353446161394)" d="M4.222008245644752,0A4.222008245644752,4.222008245644752,0,1,1,-4.222008245644752,0A4.222008245644752,4.222008245644752,0,1,1,4.222008245644752,0" class="dot symbol symbol-c color color-cenfants" style="fill: rgb(44, 160, 44); opacity: 1;"></path><path transform="translate(289.4569536423841,405.31665440274713)" d="M4.222008245644752,0A4.222008245644752,4.222008245644752,0,1,1,-4.222008245644752,0A4.222008245644752,4.222008245644752,0,1,1,4.222008245644752,0" class="dot symbol symbol-c color color-cnationalite_localisation" style="fill: rgb(255, 127, 14); opacity: 1;"></path><path transform="translate(310.008830022075,588)" d="M4.222008245644752,0A4.222008245644752,4.222008245644752,0,1,1,-4.222008245644752,0A4.222008245644752,4.222008245644752,0,1,1,4.222008245644752,0" class="dot symbol symbol-c color color-cnationalite_localisation" style="fill: rgb(255, 127, 14); opacity: 1;"></path><path transform="translate(328.1569781702232,555.429482462595)" d="M4.222008245644752,0A4.222008245644752,4.222008245644752,0,1,1,-4.222008245644752,0A4.222008245644752,4.222008245644752,0,1,1,4.222008245644752,0" class="dot symbol symbol-c color color-cperiode" style="fill: rgb(148, 103, 189); opacity: 1;"></path><path transform="translate(270.7078734363502,400.3890115280844)" d="M4.222008245644752,0A4.222008245644752,4.222008245644752,0,1,1,-4.222008245644752,0A4.222008245644752,4.222008245644752,0,1,1,4.222008245644752,0" class="dot symbol symbol-c color color-cperiode" style="fill: rgb(148, 103, 189); opacity: 1;"></path><path transform="translate(248.47338729457934,396.1824871228845)" d="M4.222008245644752,0A4.222008245644752,4.222008245644752,0,1,1,-4.222008245644752,0A4.222008245644752,4.222008245644752,0,1,1,4.222008245644752,0" class="dot symbol symbol-c color color-csexe" style="fill: rgb(140, 86, 75); opacity: 1;"></path><path transform="translate(306.6436104979151,485.841550159431)" d="M4.222008245644752,0A4.222008245644752,4.222008245644752,0,1,1,-4.222008245644752,0A4.222008245644752,4.222008245644752,0,1,1,4.222008245644752,0" class="dot symbol symbol-c color color-csexe" style="fill: rgb(140, 86, 75); opacity: 1;"></path><path transform="translate(226.71964679911702,482.9570762815796)" d="M4.222008245644752,0A4.222008245644752,4.222008245644752,0,1,1,-4.222008245644752,0A4.222008245644752,4.222008245644752,0,1,1,4.222008245644752,0" class="dot symbol symbol-c color color-csituation_matrimoniale" style="fill: rgb(227, 119, 194); opacity: 1;"></path><path transform="translate(444.9781702232034,444.73779740004903)" d="M4.222008245644752,0A4.222008245644752,4.222008245644752,0,1,1,-4.222008245644752,0A4.222008245644752,4.222008245644752,0,1,1,4.222008245644752,0" class="dot symbol symbol-c color color-csituation_matrimoniale" style="fill: rgb(227, 119, 194); opacity: 1;"></path><text text-anchor="middle" class="point-label color color-cage symbol symbol-c" transform="translate(288.49546234976697,486.44248221731664)" dx="0px" dy="-9.74165738677394px" style="font-size: 10px; fill: rgb(31, 119, 180);">(9.93,47.5]</text><text text-anchor="middle" class="point-label color color-cage symbol symbol-c" transform="translate(396.7834191807701,280.80353200882996)" dx="0px" dy="-9.74165738677394px" style="font-size: 10px; fill: rgb(31, 119, 180);">(47.5,85.1]</text><text text-anchor="middle" class="point-label color color-cdernier_domicile symbol symbol-c" transform="translate(214.94137846455726,98)" dx="0px" dy="-9.74165738677394px" style="font-size: 10px; fill: rgb(214, 39, 40);">dernier domicile : alslor</text><text text-anchor="middle" class="point-label color color-cdernier_domicile symbol symbol-c" transform="translate(268.66470443953887,427.55114054451803)" dx="0px" dy="-9.74165738677394px" style="font-size: 10px; fill: rgb(214, 39, 40);">dernier domicile : etr</text><text text-anchor="middle" class="point-label color color-cdernier_domicile symbol symbol-c" transform="translate(319.8641157714006,525.9838116261958)" dx="0px" dy="-9.74165738677394px" style="font-size: 10px; fill: rgb(214, 39, 40);">dernier domicile : fr</text><text text-anchor="middle" class="point-label color color-cdernier_domicile symbol symbol-c" transform="translate(287.29359823399557,403.0331125827814)" dx="0px" dy="-9.74165738677394px" style="font-size: 10px; fill: rgb(214, 39, 40);">dernier domicile : fr44</text><text text-anchor="middle" class="point-label color color-cenfants symbol symbol-c" transform="translate(471.0586215354427,438.36791758646063)" dx="0px" dy="-9.74165738677394px" style="font-size: 10px; fill: rgb(44, 160, 44);">avec_enfants</text><text text-anchor="middle" class="point-label color color-cenfants symbol symbol-c" transform="translate(242.82462595045376,480.67353446161394)" dx="0px" dy="-9.74165738677394px" style="font-size: 10px; fill: rgb(44, 160, 44);">sans_enfants</text><text text-anchor="middle" class="point-label color color-cnationalite_localisation symbol symbol-c" transform="translate(289.4569536423841,405.31665440274713)" dx="0px" dy="-9.74165738677394px" style="font-size: 10px; fill: rgb(255, 127, 14);">nat: limitrophe</text><text text-anchor="middle" class="point-label color color-cnationalite_localisation symbol symbol-c" transform="translate(310.008830022075,588)" dx="0px" dy="-9.74165738677394px" style="font-size: 10px; fill: rgb(255, 127, 14);">nat: nonlimit</text><text text-anchor="middle" class="point-label color color-cperiode symbol symbol-c" transform="translate(328.1569781702232,555.429482462595)" dx="0px" dy="-9.74165738677394px" style="font-size: 10px; fill: rgb(148, 103, 189);">1gm</text><text text-anchor="middle" class="point-label color color-cperiode symbol symbol-c" transform="translate(270.7078734363502,400.3890115280844)" dx="0px" dy="-9.74165738677394px" style="font-size: 10px; fill: rgb(148, 103, 189);">av1gm</text><text text-anchor="middle" class="point-label color color-csexe symbol symbol-c" transform="translate(248.47338729457934,396.1824871228845)" dx="0px" dy="-9.74165738677394px" style="font-size: 10px; fill: rgb(140, 86, 75);">f</text><text text-anchor="middle" class="point-label color color-csexe symbol symbol-c" transform="translate(306.6436104979151,485.841550159431)" dx="0px" dy="-9.74165738677394px" style="font-size: 10px; fill: rgb(140, 86, 75);">h</text><text text-anchor="middle" class="point-label color color-csituation_matrimoniale symbol symbol-c" transform="translate(226.71964679911702,482.9570762815796)" dx="0px" dy="-9.74165738677394px" style="font-size: 10px; fill: rgb(227, 119, 194);">celib</text><text text-anchor="middle" class="point-label color color-csituation_matrimoniale symbol symbol-c" transform="translate(444.9781702232034,444.73779740004903)" dx="0px" dy="-9.74165738677394px" style="font-size: 10px; fill: rgb(227, 119, 194);">mar</text></svg></g><defs><marker id="arrow-head-explor_var-#1f77b4" markerWidth="10" markerHeight="10" refX="10" refY="4" orient="auto"><path d="M0,0 L0,8 L10,4 L0,0" style="fill: rgb(31, 119, 180);"></path></marker><marker id="arrow-head-explor_var-#d62728" markerWidth="10" markerHeight="10" refX="10" refY="4" orient="auto"><path d="M0,0 L0,8 L10,4 L0,0" style="fill: rgb(214, 39, 40);"></path></marker><marker id="arrow-head-explor_var-#2ca02c" markerWidth="10" markerHeight="10" refX="10" refY="4" orient="auto"><path d="M0,0 L0,8 L10,4 L0,0" style="fill: rgb(44, 160, 44);"></path></marker><marker id="arrow-head-explor_var-#ff7f0e" markerWidth="10" markerHeight="10" refX="10" refY="4" orient="auto"><path d="M0,0 L0,8 L10,4 L0,0" style="fill: rgb(255, 127, 14);"></path></marker><marker id="arrow-head-explor_var-#9467bd" markerWidth="10" markerHeight="10" refX="10" refY="4" orient="auto"><path d="M0,0 L0,8 L10,4 L0,0" style="fill: rgb(148, 103, 189);"></path></marker><marker id="arrow-head-explor_var-#8c564b" markerWidth="10" markerHeight="10" refX="10" refY="4" orient="auto"><path d="M0,0 L0,8 L10,4 L0,0" style="fill: rgb(140, 86, 75);"></path></marker><marker id="arrow-head-explor_var-#e377c2" markerWidth="10" markerHeight="10" refX="10" refY="4" orient="auto"><path d="M0,0 L0,8 L10,4 L0,0" style="fill: rgb(227, 119, 194);"></path></marker><marker id="arrow-head-explor_var-#7f7f7f" markerWidth="10" markerHeight="10" refX="10" refY="4" orient="auto"><path d="M0,0 L0,8 L10,4 L0,0" style="fill: rgb(127, 127, 127);"></path></marker><marker id="arrow-head-explor_var-#bcbd22" markerWidth="10" markerHeight="10" refX="10" refY="4" orient="auto"><path d="M0,0 L0,8 L10,4 L0,0" style="fill: rgb(188, 189, 34);"></path></marker><marker id="arrow-head-explor_var-#17becf" markerWidth="10" markerHeight="10" refX="10" refY="4" orient="auto"><path d="M0,0 L0,8 L10,4 L0,0" style="fill: rgb(23, 190, 207);"></path></marker></defs><g class="legend" style="font-size: 100%;"><g class="color-legend-label" transform="translate(740, 50)"><text style="fill: rgb(0, 0, 0); font-weight: bold;">Variable</text></g><g class="color-legend" transform="translate(740, 62)"><g class="legendCells"><g class="cell" transform="translate(0, 0)"><rect class="swatch" height="15" width="15" style="fill: rgb(31, 119, 180);"></rect><text class="label" transform="translate(25,12.5)">age</text></g><g class="cell" transform="translate(0, 18)"><rect class="swatch" height="15" width="15" style="fill: rgb(214, 39, 40);"></rect><text class="label" transform="translate(25,12.5)">dernier_domicile</text></g><g class="cell" transform="translate(0, 36)"><rect class="swatch" height="15" width="15" style="fill: rgb(44, 160, 44);"></rect><text class="label" transform="translate(25,12.5)">enfants</text></g><g class="cell" transform="translate(0, 54)"><rect class="swatch" height="15" width="15" style="fill: rgb(255, 127, 14);"></rect><text class="label" transform="translate(25,12.5)">nationalite_localisation</text></g><g class="cell" transform="translate(0, 72)"><rect class="swatch" height="15" width="15" style="fill: rgb(148, 103, 189);"></rect><text class="label" transform="translate(25,12.5)">periode</text></g><g class="cell" transform="translate(0, 90)"><rect class="swatch" height="15" width="15" style="fill: rgb(140, 86, 75);"></rect><text class="label" transform="translate(25,12.5)">sexe</text></g><g class="cell" transform="translate(0, 108)"><rect class="swatch" height="15" width="15" style="fill: rgb(227, 119, 194);"></rect><text class="label" transform="translate(25,12.5)">situation_matrimoniale</text></g></g></g></g></svg>