<svg width="1238" height="711" class="scatterD3" id="scatterD3-svg-explor_var" xmlns="http://www.w3.org/2000/svg" version="1.1"><style>.scatterD3 {font: 11px Open Sans, Droid Sans, Helvetica, Verdana, sans-serif;}.scatterD3 .axis line, .axis path { stroke: #000; fill: none; shape-rendering: CrispEdges;} .scatterD3 .axis .tick line { stroke: #ddd;} .scatterD3 .axis text { fill: #000; }</style><g class="root" transform="translate(30,5)" width="686" height="686"><rect class="viewport" width="686" height="686" style="fill: rgb(255, 255, 255);"></rect><g class="x axis" transform="translate(0,686)" fill="none" font-size="10" font-family="sans-serif" text-anchor="middle" style="font-size: 100%;"><path class="domain" stroke="currentColor" d="M0.5,-686V0.5H686.5V-686"></path><g class="tick" opacity="1" transform="translate(17.027592768791617,0)"><line stroke="currentColor" y2="-686"></line><text fill="currentColor" y="3" dy="0.71em">-2.5</text></g><g class="tick" opacity="1" transform="translate(75.30542340627973,0)"><line stroke="currentColor" y2="-686"></line><text fill="currentColor" y="3" dy="0.71em">-2.0</text></g><g class="tick" opacity="1" transform="translate(133.58325404376782,0)"><line stroke="currentColor" y2="-686"></line><text fill="currentColor" y="3" dy="0.71em">-1.5</text></g><g class="tick" opacity="1" transform="translate(191.86108468125593,0)"><line stroke="currentColor" y2="-686"></line><text fill="currentColor" y="3" dy="0.71em">-1.0</text></g><g class="tick" opacity="1" transform="translate(250.13891531874404,0)"><line stroke="currentColor" y2="-686"></line><text fill="currentColor" y="3" dy="0.71em">-0.5</text></g><g class="tick" opacity="1" transform="translate(308.41674595623215,0)"><line stroke="currentColor" y2="-686"></line><text fill="currentColor" y="3" dy="0.71em">0.0</text></g><g class="tick" opacity="1" transform="translate(366.6945765937203,0)"><line stroke="currentColor" y2="-686"></line><text fill="currentColor" y="3" dy="0.71em">0.5</text></g><g class="tick" opacity="1" transform="translate(424.97240723120836,0)"><line stroke="currentColor" y2="-686"></line><text fill="currentColor" y="3" dy="0.71em">1.0</text></g><g class="tick" opacity="1" transform="translate(483.25023786869644,0)"><line stroke="currentColor" y2="-686"></line><text fill="currentColor" y="3" dy="0.71em">1.5</text></g><g class="tick" opacity="1" transform="translate(541.5280685061846,0)"><line stroke="currentColor" y2="-686"></line><text fill="currentColor" y="3" dy="0.71em">2.0</text></g><g class="tick" opacity="1" transform="translate(599.8058991436726,0)"><line stroke="currentColor" y2="-686"></line><text fill="currentColor" y="3" dy="0.71em">2.5</text></g><g class="tick" opacity="1" transform="translate(658.0837297811607,0)"><line stroke="currentColor" y2="-686"></line><text fill="currentColor" y="3" dy="0.71em">3.0</text></g></g><g class="y axis" fill="none" font-size="10" font-family="sans-serif" text-anchor="end" style="font-size: 100%;"><path class="domain" stroke="currentColor" d="M686,686.5H0.5V0.5H686"></path><g class="tick" opacity="1" transform="translate(0,653.4215033301617)"><line stroke="currentColor" x2="686"></line><text fill="currentColor" x="-3" dy="0.32em">-1.5</text></g><g class="tick" opacity="1" transform="translate(0,595.1436726926736)"><line stroke="currentColor" x2="686"></line><text fill="currentColor" x="-3" dy="0.32em">-1.0</text></g><g class="tick" opacity="1" transform="translate(0,536.8658420551856)"><line stroke="currentColor" x2="686"></line><text fill="currentColor" x="-3" dy="0.32em">-0.5</text></g><g class="tick" opacity="1" transform="translate(0,478.58801141769743)"><line stroke="currentColor" x2="686"></line><text fill="currentColor" x="-3" dy="0.32em">0.0</text></g><g class="tick" opacity="1" transform="translate(0,420.3101807802093)"><line stroke="currentColor" x2="686"></line><text fill="currentColor" x="-3" dy="0.32em">0.5</text></g><g class="tick" opacity="1" transform="translate(0,362.0323501427212)"><line stroke="currentColor" x2="686"></line><text fill="currentColor" x="-3" dy="0.32em">1.0</text></g><g class="tick" opacity="1" transform="translate(0,303.7545195052331)"><line stroke="currentColor" x2="686"></line><text fill="currentColor" x="-3" dy="0.32em">1.5</text></g><g class="tick" opacity="1" transform="translate(0,245.476688867745)"><line stroke="currentColor" x2="686"></line><text fill="currentColor" x="-3" dy="0.32em">2.0</text></g><g class="tick" opacity="1" transform="translate(0,187.19885823025686)"><line stroke="currentColor" x2="686"></line><text fill="currentColor" x="-3" dy="0.32em">2.5</text></g><g class="tick" opacity="1" transform="translate(0,128.92102759276884)"><line stroke="currentColor" x2="686"></line><text fill="currentColor" x="-3" dy="0.32em">3.0</text></g><g class="tick" opacity="1" transform="translate(0,70.6431969552807)"><line stroke="currentColor" x2="686"></line><text fill="currentColor" x="-3" dy="0.32em">3.5</text></g><g class="tick" opacity="1" transform="translate(0,12.365366317792564)"><line stroke="currentColor" x2="686"></line><text fill="currentColor" x="-3" dy="0.32em">4.0</text></g></g><text class="x-axis-label" transform="translate(681,680)" style="text-anchor: end; font-size: 100%;">Axis 1 (17.93%)</text><text class="y-axis-label" transform="translate(5,6) rotate(-90)" dy=".71em" style="text-anchor: end; font-size: 100%;">Axis 2 (16.19%)</text><svg class="chart-body" width="686" height="686"><path class="line" d="M0,478.08801141769743L686,478.08801141769743" style="stroke-width: 1px; stroke: rgb(0, 0, 0); stroke-dasharray: 5;"></path><path class="line" d="M307.91674595623215,0L307.91674595623215,686" style="stroke-width: 1px; stroke: rgb(0, 0, 0); stroke-dasharray: 5;"></path><path transform="translate(297.8929590865842,487.0627973358706)" d="M4.222008245644752,0A4.222008245644752,4.222008245644752,0,1,1,-4.222008245644752,0A4.222008245644752,4.222008245644752,0,1,1,4.222008245644752,0" class="dot symbol symbol-c color color-cage" style="fill: rgb(31, 119, 180); opacity: 1;"></path><path transform="translate(452.7954329210276,347.895337773549)" d="M4.222008245644752,0A4.222008245644752,4.222008245644752,0,1,1,-4.222008245644752,0A4.222008245644752,4.222008245644752,0,1,1,4.222008245644752,0" class="dot symbol symbol-c color color-cage" style="fill: rgb(31, 119, 180); opacity: 1;"></path><path transform="translate(220.61655566127496,98)" d="M4.222008245644752,0A4.222008245644752,4.222008245644752,0,1,1,-4.222008245644752,0A4.222008245644752,4.222008245644752,0,1,1,4.222008245644752,0" class="dot symbol symbol-c color color-cdernier_domicile" style="fill: rgb(214, 39, 40); opacity: 1;"></path><path transform="translate(264.2083729781161,402.5599429115128)" d="M4.222008245644752,0A4.222008245644752,4.222008245644752,0,1,1,-4.222008245644752,0A4.222008245644752,4.222008245644752,0,1,1,4.222008245644752,0" class="dot symbol symbol-c color color-cdernier_domicile" style="fill: rgb(214, 39, 40); opacity: 1;"></path><path transform="translate(336.47288296860137,536.9486203615604)" d="M4.222008245644752,0A4.222008245644752,4.222008245644752,0,1,1,-4.222008245644752,0A4.222008245644752,4.222008245644752,0,1,1,4.222008245644752,0" class="dot symbol symbol-c color color-cdernier_domicile" style="fill: rgb(214, 39, 40); opacity: 1;"></path><path transform="translate(312.46241674595626,461.3039961941008)" d="M4.222008245644752,0A4.222008245644752,4.222008245644752,0,1,1,-4.222008245644752,0A4.222008245644752,4.222008245644752,0,1,1,4.222008245644752,0" class="dot symbol symbol-c color color-cdernier_domicile" style="fill: rgb(214, 39, 40); opacity: 1;"></path><path transform="translate(465.383444338725,423.42340627973357)" d="M4.222008245644752,0A4.222008245644752,4.222008245644752,0,1,1,-4.222008245644752,0A4.222008245644752,4.222008245644752,0,1,1,4.222008245644752,0" class="dot symbol symbol-c color color-cenfants" style="fill: rgb(44, 160, 44); opacity: 1;"></path><path transform="translate(257.91436726926736,495.45480494766883)" d="M4.222008245644752,0A4.222008245644752,4.222008245644752,0,1,1,-4.222008245644752,0A4.222008245644752,4.222008245644752,0,1,1,4.222008245644752,0" class="dot symbol symbol-c color color-cenfants" style="fill: rgb(44, 160, 44); opacity: 1;"></path><path transform="translate(294.62940057088485,412.1175071360609)" d="M4.222008245644752,0A4.222008245644752,4.222008245644752,0,1,1,-4.222008245644752,0A4.222008245644752,4.222008245644752,0,1,1,4.222008245644752,0" class="dot symbol symbol-c color color-cnationalite_localisation" style="fill: rgb(255, 127, 14); opacity: 1;"></path><path transform="translate(330.06232159847764,588)" d="M4.222008245644752,0A4.222008245644752,4.222008245644752,0,1,1,-4.222008245644752,0A4.222008245644752,4.222008245644752,0,1,1,4.222008245644752,0" class="dot symbol symbol-c color color-cnationalite_localisation" style="fill: rgb(255, 127, 14); opacity: 1;"></path><path transform="translate(337.1722169362511,520.0480494766888)" d="M4.222008245644752,0A4.222008245644752,4.222008245644752,0,1,1,-4.222008245644752,0A4.222008245644752,4.222008245644752,0,1,1,4.222008245644752,0" class="dot symbol symbol-c color color-cperiode" style="fill: rgb(148, 103, 189); opacity: 1;"></path><path transform="translate(242.4124643196955,384.14414843006654)" d="M4.222008245644752,0A4.222008245644752,4.222008245644752,0,1,1,-4.222008245644752,0A4.222008245644752,4.222008245644752,0,1,1,4.222008245644752,0" class="dot symbol symbol-c color color-cperiode" style="fill: rgb(148, 103, 189); opacity: 1;"></path><path transform="translate(273.8824928639391,412.9333967649857)" d="M4.222008245644752,0A4.222008245644752,4.222008245644752,0,1,1,-4.222008245644752,0A4.222008245644752,4.222008245644752,0,1,1,4.222008245644752,0" class="dot symbol symbol-c color color-csexe" style="fill: rgb(140, 86, 75); opacity: 1;"></path><path transform="translate(314.5604186489058,490.9091341579448)" d="M4.222008245644752,0A4.222008245644752,4.222008245644752,0,1,1,-4.222008245644752,0A4.222008245644752,4.222008245644752,0,1,1,4.222008245644752,0" class="dot symbol symbol-c color color-csexe" style="fill: rgb(140, 86, 75); opacity: 1;"></path><path transform="translate(241.71313035204565,498.7183634633682)" d="M4.222008245644752,0A4.222008245644752,4.222008245644752,0,1,1,-4.222008245644752,0A4.222008245644752,4.222008245644752,0,1,1,4.222008245644752,0" class="dot symbol symbol-c color color-csituation_matrimoniale" style="fill: rgb(227, 119, 194); opacity: 1;"></path><path transform="translate(444.6365366317792,435.54519505233105)" d="M4.222008245644752,0A4.222008245644752,4.222008245644752,0,1,1,-4.222008245644752,0A4.222008245644752,4.222008245644752,0,1,1,4.222008245644752,0" class="dot symbol symbol-c color color-csituation_matrimoniale" style="fill: rgb(227, 119, 194); opacity: 1;"></path><text text-anchor="middle" class="point-label color color-cage symbol symbol-c" transform="translate(297.8929590865842,487.0627973358706)" dx="0px" dy="-9.74165738677394px" style="font-size: 10px; fill: rgb(31, 119, 180);">(9.93,47.5]</text><text text-anchor="middle" class="point-label color color-cage symbol symbol-c" transform="translate(452.7954329210276,347.895337773549)" dx="0px" dy="-9.74165738677394px" style="font-size: 10px; fill: rgb(31, 119, 180);">(47.5,85.1]</text><text text-anchor="middle" class="point-label color color-cdernier_domicile symbol symbol-c" transform="translate(220.61655566127496,98)" dx="0px" dy="-9.74165738677394px" style="font-size: 10px; fill: rgb(214, 39, 40);">dernier domicile : alslor</text><text text-anchor="middle" class="point-label color color-cdernier_domicile symbol symbol-c" transform="translate(264.2083729781161,402.5599429115128)" dx="0px" dy="-9.74165738677394px" style="font-size: 10px; fill: rgb(214, 39, 40);">dernier domicile : etr</text><text text-anchor="middle" class="point-label color color-cdernier_domicile symbol symbol-c" transform="translate(336.47288296860137,536.9486203615604)" dx="0px" dy="-9.74165738677394px" style="font-size: 10px; fill: rgb(214, 39, 40);">dernier domicile : fr</text><text text-anchor="middle" class="point-label color color-cdernier_domicile symbol symbol-c" transform="translate(312.46241674595626,461.3039961941008)" dx="0px" dy="-9.74165738677394px" style="font-size: 10px; fill: rgb(214, 39, 40);">dernier domicile : fr44</text><text text-anchor="middle" class="point-label color color-cenfants symbol symbol-c" transform="translate(465.383444338725,423.42340627973357)" dx="0px" dy="-9.74165738677394px" style="font-size: 10px; fill: rgb(44, 160, 44);">avec_enfants</text><text text-anchor="middle" class="point-label color color-cenfants symbol symbol-c" transform="translate(257.91436726926736,495.45480494766883)" dx="0px" dy="-9.74165738677394px" style="font-size: 10px; fill: rgb(44, 160, 44);">sans_enfants</text><text text-anchor="middle" class="point-label color color-cnationalite_localisation symbol symbol-c" transform="translate(294.62940057088485,412.1175071360609)" dx="0px" dy="-9.74165738677394px" style="font-size: 10px; fill: rgb(255, 127, 14);">nat: limitrophe</text><text text-anchor="middle" class="point-label color color-cnationalite_localisation symbol symbol-c" transform="translate(330.06232159847764,588)" dx="0px" dy="-9.74165738677394px" style="font-size: 10px; fill: rgb(255, 127, 14);">nat: nonlimit</text><text text-anchor="middle" class="point-label color color-cperiode symbol symbol-c" transform="translate(337.1722169362511,520.0480494766888)" dx="0px" dy="-9.74165738677394px" style="font-size: 10px; fill: rgb(148, 103, 189);">1gm</text><text text-anchor="middle" class="point-label color color-cperiode symbol symbol-c" transform="translate(242.4124643196955,384.14414843006654)" dx="0px" dy="-9.74165738677394px" style="font-size: 10px; fill: rgb(148, 103, 189);">av1gm</text><text text-anchor="middle" class="point-label color color-csexe symbol symbol-c" transform="translate(273.8824928639391,412.9333967649857)" dx="0px" dy="-9.74165738677394px" style="font-size: 10px; fill: rgb(140, 86, 75);">f</text><text text-anchor="middle" class="point-label color color-csexe symbol symbol-c" transform="translate(314.5604186489058,490.9091341579448)" dx="0px" dy="-9.74165738677394px" style="font-size: 10px; fill: rgb(140, 86, 75);">h</text><text text-anchor="middle" class="point-label color color-csituation_matrimoniale symbol symbol-c" transform="translate(241.71313035204565,498.7183634633682)" dx="0px" dy="-9.74165738677394px" style="font-size: 10px; fill: rgb(227, 119, 194);">celib</text><text text-anchor="middle" class="point-label color color-csituation_matrimoniale symbol symbol-c" transform="translate(444.6365366317792,435.54519505233105)" dx="0px" dy="-9.74165738677394px" style="font-size: 10px; fill: rgb(227, 119, 194);">mar</text></svg></g><defs><marker id="arrow-head-explor_var-#1f77b4" markerWidth="10" markerHeight="10" refX="10" refY="4" orient="auto"><path d="M0,0 L0,8 L10,4 L0,0" style="fill: rgb(31, 119, 180);"></path></marker><marker id="arrow-head-explor_var-#d62728" markerWidth="10" markerHeight="10" refX="10" refY="4" orient="auto"><path d="M0,0 L0,8 L10,4 L0,0" style="fill: rgb(214, 39, 40);"></path></marker><marker id="arrow-head-explor_var-#2ca02c" markerWidth="10" markerHeight="10" refX="10" refY="4" orient="auto"><path d="M0,0 L0,8 L10,4 L0,0" style="fill: rgb(44, 160, 44);"></path></marker><marker id="arrow-head-explor_var-#ff7f0e" markerWidth="10" markerHeight="10" refX="10" refY="4" orient="auto"><path d="M0,0 L0,8 L10,4 L0,0" style="fill: rgb(255, 127, 14);"></path></marker><marker id="arrow-head-explor_var-#9467bd" markerWidth="10" markerHeight="10" refX="10" refY="4" orient="auto"><path d="M0,0 L0,8 L10,4 L0,0" style="fill: rgb(148, 103, 189);"></path></marker><marker id="arrow-head-explor_var-#8c564b" markerWidth="10" markerHeight="10" refX="10" refY="4" orient="auto"><path d="M0,0 L0,8 L10,4 L0,0" style="fill: rgb(140, 86, 75);"></path></marker><marker id="arrow-head-explor_var-#e377c2" markerWidth="10" markerHeight="10" refX="10" refY="4" orient="auto"><path d="M0,0 L0,8 L10,4 L0,0" style="fill: rgb(227, 119, 194);"></path></marker><marker id="arrow-head-explor_var-#7f7f7f" markerWidth="10" markerHeight="10" refX="10" refY="4" orient="auto"><path d="M0,0 L0,8 L10,4 L0,0" style="fill: rgb(127, 127, 127);"></path></marker><marker id="arrow-head-explor_var-#bcbd22" markerWidth="10" markerHeight="10" refX="10" refY="4" orient="auto"><path d="M0,0 L0,8 L10,4 L0,0" style="fill: rgb(188, 189, 34);"></path></marker><marker id="arrow-head-explor_var-#17becf" markerWidth="10" markerHeight="10" refX="10" refY="4" orient="auto"><path d="M0,0 L0,8 L10,4 L0,0" style="fill: rgb(23, 190, 207);"></path></marker></defs><g class="legend" style="font-size: 100%;"><g class="color-legend-label" transform="translate(740, 50)"><text style="fill: rgb(0, 0, 0); font-weight: bold;">Variable</text></g><g class="color-legend" transform="translate(740, 62)"><g class="legendCells"><g class="cell" transform="translate(0, 0)"><rect class="swatch" height="15" width="15" style="fill: rgb(31, 119, 180);"></rect><text class="label" transform="translate(25,12.5)">age</text></g><g class="cell" transform="translate(0, 18)"><rect class="swatch" height="15" width="15" style="fill: rgb(214, 39, 40);"></rect><text class="label" transform="translate(25,12.5)">dernier_domicile</text></g><g class="cell" transform="translate(0, 36)"><rect class="swatch" height="15" width="15" style="fill: rgb(44, 160, 44);"></rect><text class="label" transform="translate(25,12.5)">enfants</text></g><g class="cell" transform="translate(0, 54)"><rect class="swatch" height="15" width="15" style="fill: rgb(255, 127, 14);"></rect><text class="label" transform="translate(25,12.5)">nationalite_localisation</text></g><g class="cell" transform="translate(0, 72)"><rect class="swatch" height="15" width="15" style="fill: rgb(148, 103, 189);"></rect><text class="label" transform="translate(25,12.5)">periode</text></g><g class="cell" transform="translate(0, 90)"><rect class="swatch" height="15" width="15" style="fill: rgb(140, 86, 75);"></rect><text class="label" transform="translate(25,12.5)">sexe</text></g><g class="cell" transform="translate(0, 108)"><rect class="swatch" height="15" width="15" style="fill: rgb(227, 119, 194);"></rect><text class="label" transform="translate(25,12.5)">situation_matrimoniale</text></g></g></g></g></svg>